<svg width="354" height="558" viewBox="0 0 354 558" fill="none" xmlns="http://www.w3.org/2000/svg">
<g clip-path="url(#clip0)">
<path d="M341.48 0L336.04 8.72L0 8.64V0H341.48Z" fill="#1E1E1E"/>
<path d="M15.79 1.59C12.57 1.59 12.57 6.59 15.79 6.59C19 6.59 19.01 1.59 15.79 1.59Z" fill="#32D74B"/>
<path d="M37.91 1.59C34.69 1.59 34.69 6.59 37.91 6.59C41.13 6.59 41.14 1.59 37.91 1.59Z" fill="#FF2D55"/>
<path d="M27.02 1.59C23.8 1.59 23.8 6.59 27.02 6.59C30.24 6.59 30.24 1.59 27.02 1.59Z" fill="#FF9F0A"/>
<path d="M336.23 9.21001L330.09 19.05L0.0799561 20.26V8.64001L336.23 9.21001Z" fill="#3C3C3C"/>
<path d="M0.0799561 20.26L330.09 19.05L336.23 9.21001L0.0799561 8.64001V20.26Z" stroke="#3C3C3C" stroke-miterlimit="10"/>
<path d="M330.21 19.55L0 546.34L0.08 21.4L0 21.15L330.21 19.55Z" fill="#212121"/>
<path d="M0 21.15L330.21 19.55L0 546.34L0.08 21.4L0 21.15Z" stroke="#212121" stroke-miterlimit="10"/>
<path d="M-0.0100268 20.9L92.29 20.26V398.47L-0.0900269 545.84L-0.0100268 28.94V20.9Z" fill="#2A2A2A"/>
<path d="M87.2 30.72H4.98999V42.72H87.2V30.72Z" fill="#3C3C3C"/>
<path d="M9.14995 65.67C11.08 65.67 11.08 62.67 9.14995 62.67C7.21995 62.67 7.21995 65.67 9.14995 65.67Z" fill="#32D74B"/>
<path d="M9.14995 76.22C11.08 76.22 11.08 73.22 9.14995 73.22C7.21995 73.22 7.21995 76.22 9.14995 76.22Z" fill="#32D74B"/>
<path d="M9.48998 85.07C11.42 85.07 11.42 82.07 9.48998 82.07C7.55998 82.07 7.55998 85.07 9.48998 85.07Z" fill="#32D74B"/>
<path d="M9.14995 95.63C11.08 95.63 11.08 92.63 9.14995 92.63C7.21995 92.63 7.21995 95.63 9.14995 95.63Z" fill="#32D74B"/>
<path d="M17.66 109.24C19.59 109.24 19.59 106.24 17.66 106.24C15.73 106.24 15.73 109.24 17.66 109.24Z" fill="#32D74B"/>
<path d="M17.66 120.48C19.59 120.48 19.59 117.48 17.66 117.48C15.73 117.48 15.73 120.48 17.66 120.48Z" fill="#32D74B"/>
<path d="M18.34 132.39C20.27 132.39 20.27 129.39 18.34 129.39C16.41 129.39 16.41 132.39 18.34 132.39Z" fill="#32D74B"/>
<path d="M8.80996 145.67C10.74 145.67 10.74 142.67 8.80996 142.67C6.87996 142.67 6.86996 145.67 8.80996 145.67Z" fill="#CCCC00"/>
<path d="M9.14995 154.86C11.08 154.86 11.08 151.86 9.14995 151.86C7.21995 151.86 7.21995 154.86 9.14995 154.86Z" fill="#CCCC00"/>
<path d="M8.46999 164.39C10.4 164.39 10.4 161.39 8.46999 161.39C6.53999 161.39 6.52999 164.39 8.46999 164.39Z" fill="#CCCC00"/>
<path d="M18.34 145.23C29.12 145.23 39.9 145.23 50.68 145.23C51.16 145.23 51.16 144.48 50.68 144.48C39.9 144.48 29.12 144.48 18.34 144.48C17.86 144.48 17.86 145.23 18.34 145.23Z" fill="#CCCC00"/>
<path d="M18 154.42C27.99 154.42 37.97 154.42 47.96 154.42C48.44 154.42 48.44 153.67 47.96 153.67C37.97 153.67 27.99 153.67 18 153.67C17.52 153.67 17.52 154.42 18 154.42Z" fill="#CCCC00"/>
<path d="M18.34 164.58C27.98 165 37.62 165.12 47.27 164.94C47.75 164.93 47.75 164.18 47.27 164.19C37.62 164.37 27.98 164.25 18.34 163.83C17.86 163.81 17.86 164.56 18.34 164.58Z" fill="#CCCC00"/>
<path d="M24.47 131.99C38.55 131.75 52.62 131.99 66.68 132.69C67.16 132.71 67.16 131.96 66.68 131.94C52.62 131.24 38.55 131 24.47 131.24C23.99 131.24 23.99 132 24.47 131.99Z" fill="#32D74B"/>
<path d="M25.15 119.35C35.82 119.35 46.48 119.35 57.15 119.35C57.63 119.35 57.63 118.6 57.15 118.6C46.48 118.6 35.82 118.6 25.15 118.6C24.67 118.6 24.67 119.35 25.15 119.35Z" fill="#32D74B"/>
<path d="M25.47 107.08C33.3 107.42 41.13 107.59 48.97 107.61C49.45 107.61 49.45 106.86 48.97 106.86C41.13 106.84 33.3 106.67 25.47 106.33C24.99 106.31 24.99 107.06 25.47 107.08Z" fill="#32D74B"/>
<path d="M20.73 64.66C31.96 65.12 43.19 65.59 54.42 66.05C54.9 66.07 54.9 65.32 54.42 65.3C43.19 64.84 31.96 64.37 20.73 63.91C20.25 63.89 20.25 64.64 20.73 64.66Z" fill="#32D74B"/>
<path d="M19.6999 77.48C24.2299 77.37 28.7199 77.61 33.2099 78.23C33.6799 78.29 33.8899 77.57 33.4099 77.51C28.8599 76.88 24.2999 76.62 19.7099 76.74C19.2199 76.75 19.2199 77.5 19.6999 77.48Z" fill="#32D74B"/>
<path d="M18.6799 86.54C29.5699 86.69 40.4699 86.84 51.3599 86.99C51.8399 87 51.8399 86.25 51.3599 86.24C40.4699 86.09 29.5699 85.94 18.6799 85.79C18.1999 85.78 18.1999 86.53 18.6799 86.54Z" fill="#32D74B"/>
<path d="M19.36 95.66C37.29 95.46 55.22 95.43 73.15 95.55C73.63 95.55 73.63 94.8 73.15 94.8C55.22 94.67 37.29 94.71 19.36 94.91C18.88 94.92 18.88 95.67 19.36 95.66Z" fill="#32D74B"/>
<path d="M95.82 33.19C95.82 33.64 95.82 34.1 95.82 34.55C95.82 35.33 96.51 36.09 97.32 36.05C98.13 36.01 98.82 35.39 98.82 34.55C98.82 34.1 98.82 33.64 98.82 33.19C98.82 32.41 98.13 31.65 97.32 31.69C96.51 31.73 95.82 32.35 95.82 33.19Z" fill="#212121"/>
<path d="M96.5 29.45C96.44 31.21 96.58 32.95 96.85 34.69C96.98 35.49 97.9799 35.93 98.6999 35.74C99.5499 35.51 99.87 34.7 99.75 33.89C99.52 32.42 99.46 30.93 99.51 29.44C99.56 27.52 96.56 27.52 96.5 29.45Z" fill="#212121"/>
<path d="M99.92 35.42C100.25 36.51 99.99 37.67 100.15 38.79C100.3 39.82 100.72 40.81 101.56 41.47C103.09 42.66 105.64 42.05 106.1 40.06C106.54 38.18 103.65 37.38 103.21 39.26C103.27 39.01 103.37 39.16 103.37 39.07C103.37 38.99 103.19 38.74 103.16 38.61C103.1 38.38 103.09 38.16 103.08 37.92C103.03 36.79 103.16 35.72 102.82 34.62C102.25 32.78 99.36 33.57 99.92 35.42Z" fill="#212121"/>
<path d="M123.23 53.48C122.71 53.14 122.18 52.79 121.66 52.45C121.54 53.36 121.42 54.28 121.3 55.19C126.32 53.2 133.43 54.22 138.77 54.39C144.51 54.57 150.24 54.98 155.94 55.61C162.14 56.29 168.32 57.24 174.44 58.46C177.31 59.03 180.19 59.65 182.95 60.63C183.91 61.02 184.87 61.42 185.83 61.81C185.1 62.81 184.38 63.81 183.65 64.81C182.38 65.66 180.01 65.73 178.57 65.95C167.21 67.68 155.32 66.79 143.88 66.45C131.59 66.08 119.3 65.65 107.02 64.98C107.15 65.96 107.29 66.94 107.42 67.93C118.18 66.43 128.99 65.7 139.86 65.68C141.79 65.68 141.79 62.68 139.86 62.68C128.72 62.69 117.65 63.5 106.63 65.03C104.88 65.27 105.43 67.89 107.03 67.98C122.82 68.85 138.64 69.41 154.45 69.74C161.94 69.89 169.53 70.01 176.99 69.2C180.62 68.8 188.28 68.24 189.72 63.91C192.39 55.85 166.39 53.98 162.04 53.39C155.27 52.46 148.47 51.84 141.64 51.53C135.17 51.24 126.65 49.89 120.5 52.32C119.3 52.79 119 54.31 120.14 55.06C120.66 55.4 121.19 55.75 121.71 56.09C123.33 57.14 124.84 54.54 123.23 53.48Z" fill="#212121"/>
<path d="M185.2 74.27C177.5 72.52 169.45 71.91 161.62 73.23C157.82 73.87 153.75 76.93 157.66 80.52C161.15 83.72 190.15 91.21 187.91 82.17C186.7 77.29 176.12 74.6 172 73.63C165.29 72.05 158.14 72.08 151.53 74.12C140.06 77.66 129.05 88.09 127.85 100.54C126.22 117.31 149.59 112.03 157.97 107.06C159.63 106.08 158.12 103.48 156.46 104.47C151.27 107.55 145.25 109.51 139.14 109.14C135 108.89 131.07 107.08 130.75 102.39C130.55 99.49 131.79 96.16 133 93.6C137.54 83.99 147.07 77.36 157.51 75.88C163.13 75.08 168.91 75.64 174.31 77.39C176.09 77.97 181.68 79.42 182.74 81.18C184.67 84.38 177.9 83.39 176.17 83.26C172.89 83.02 169.62 82.35 166.5 81.32C165.17 80.88 163.13 80.45 162.08 79.57C160.44 79.39 160.09 78.71 161.04 77.54C161.31 75.74 162.55 75.17 164.77 75.84C171.38 75.17 177.95 75.7 184.42 77.17C186.28 77.59 187.08 74.7 185.2 74.27Z" fill="#212121"/>
<path d="M95.34 35.06C95.34 35.57 95.34 36.08 95.34 36.59C95.34 38.04 97.59 38.04 97.59 36.59C97.59 36.08 97.59 35.57 97.59 35.06C97.59 33.62 95.34 33.61 95.34 35.06Z" fill="#3A3A3A"/>
<path d="M96.51 48.14C96.39 48.17 96.68 48.18 96.48 48.12C96.42 48.1 96.54 48.25 96.5 48.13C96.47 48.06 96.51 48.02 96.51 47.97C96.44 48.09 96.43 48.11 96.47 48.04C96.54 47.99 96.51 48 96.39 48.07C95.85 48.34 95.69 49.11 95.99 49.61C96.31 50.16 96.98 50.29 97.53 50.01C98.51 49.51 98.98 48.27 98.57 47.26C98.15 46.21 97 45.7 95.92 45.97C94.51 46.32 95.1 48.49 96.51 48.14Z" fill="#3A3A3A"/>
<path d="M98.05 60.7C97.41 60.28 97.07 60.3 97.06 60.77C97.02 60.93 96.97 61.09 96.91 61.24C96.82 61.45 96.71 61.66 96.59 61.86C96.3 62.33 95.93 62.74 95.48 63.06C94.31 63.9 95.44 65.85 96.62 65C97.91 64.07 98.99 62.72 99.29 61.12C99.61 59.39 98 57.9 96.47 59.11C95.99 59.49 96.08 60.3 96.47 60.7C96.93 61.18 97.58 61.08 98.05 60.7Z" fill="#3A3A3A"/>
<path d="M95.06 73.63C94.44 74.5 94.64 75.77 95.48 76.42C96.32 77.06 97.61 76.93 98.28 76.1C97.65 75.93 97.03 75.77 96.4 75.6C96.62 76.2 96.63 76.7 96.42 77.3C95.95 78.67 98.12 79.26 98.59 77.9C98.92 76.96 98.91 75.94 98.57 75C98.31 74.29 97.27 73.79 96.69 74.5C96.5 74.73 96.67 74.51 96.84 74.65C97.01 74.78 96.83 75 97.01 74.76C97.85 73.59 95.9 72.46 95.06 73.63Z" fill="#3A3A3A"/>
<path d="M97.7 90.02C96.29 91.06 95.85 92.74 96.54 94.34C96.78 94.9 97.6 95.02 98.08 94.74C98.66 94.4 98.72 93.76 98.48 93.2C98.32 92.83 98.5 92.21 98.84 91.95C99.33 91.59 99.57 90.97 99.24 90.41C98.96 89.94 98.19 89.66 97.7 90.02Z" fill="#3A3A3A"/>
<path d="M96.34 105.21C96.17 106.05 95.53 106.7 95.33 107.55C95.13 108.43 95.31 109.39 96.03 109.98C96.65 110.49 97.56 110.47 98.23 110.05C99.03 109.54 99.22 108.66 98.83 107.83C98.57 107.28 97.78 107.14 97.29 107.43C96.73 107.76 96.63 108.42 96.89 108.97C96.91 109.01 96.93 109.05 96.95 109.1C96.9 108.91 96.85 108.72 96.8 108.53C96.79 108.41 96.98 108.16 97.11 108.13C97.27 108.09 97.4 108.4 97.52 108.29C97.56 108.25 97.66 107.75 97.7 107.66C98.01 107.05 98.39 106.5 98.52 105.82C98.79 104.4 96.62 103.79 96.34 105.21Z" fill="#3A3A3A"/>
<path d="M94.81 127.48C95.67 128.6 95.95 129.88 95.55 131.24C95.14 132.63 97.31 133.22 97.72 131.84C98.28 129.96 97.95 127.91 96.76 126.34C95.89 125.21 93.93 126.33 94.81 127.48Z" fill="#3A3A3A"/>
<path d="M97.23 131.42C98.68 131.42 98.68 129.17 97.23 129.17C95.79 129.17 95.78 131.42 97.23 131.42Z" fill="#3A3A3A"/>
<path d="M99.38 151.23C99.31 150.42 99.38 149.67 99.59 148.89C98.85 148.79 98.12 148.69 97.38 148.59C97.43 149 97.45 149.42 97.43 149.83C97.41 150.27 97.21 150.74 97.2 151.17C97.2 151.53 96.8 151.32 97.61 151.49C98.08 151.59 98.07 151.44 98.14 151.76C98.09 151.84 98.03 151.93 97.98 152.01C98.02 152.01 98.07 152.01 98.11 152C98.19 152.05 98.6 152.08 98.7 152.1C100.11 152.42 100.71 150.25 99.3 149.93C98.24 149.69 96.91 149.61 96.23 150.63C95.72 151.39 95.8 152.51 96.51 153.12C97.45 153.93 98.69 153.33 99.17 152.33C99.71 151.2 99.78 149.78 99.64 148.57C99.5 147.38 97.8 146.96 97.43 148.27C97.16 149.23 97.06 150.21 97.14 151.2C97.25 152.67 99.5 152.68 99.38 151.23Z" fill="#3A3A3A"/>
<path d="M95.96 168.95C97.5 169.69 99.57 168.92 99.83 167.1C99.89 166.65 99.8 166.04 99.31 165.83C98.36 165.43 97.31 165.11 96.42 165.82C95.77 166.34 95.48 167.27 95.89 168.03C96.22 168.63 97.17 169.16 97.88 168.94C97.96 168.94 98.03 168.94 98.11 168.94C97.92 168.62 97.84 168.56 97.85 168.77C97.83 168.78 97.77 169.59 97.78 169.48C97.71 170.12 97.64 170.76 97.56 171.41C97.4 172.85 99.65 172.84 99.81 171.41C99.94 170.27 100.43 168.67 99.82 167.6C99.56 167.16 99.11 166.86 98.62 166.75C98.43 166.71 98.18 166.67 97.99 166.69C97.88 166.69 97.76 166.69 97.65 166.7C97.46 167.36 97.63 167.72 98.16 167.78C97.99 167.36 97.82 166.93 97.64 166.51C97.6 166.76 97.42 167.19 97.07 167.02C95.8 166.38 94.66 168.32 95.96 168.95Z" fill="#3A3A3A"/>
<path d="M95.87 186.47C95.8 188.45 95.83 190.42 95.96 192.4C96.02 193.32 96.86 193.71 97.65 193.37C98.95 192.81 99.87 191.63 100.09 190.23C100.23 189.37 99.6 188.66 98.71 188.85C97.34 189.13 96.55 190.66 97.14 191.94C97.73 193.23 99.34 193.69 100.59 193.12C101.89 192.52 102.8 190.92 102.4 189.49C102.01 188.08 100.53 187.55 99.28 188.14C97.97 188.76 99.11 190.7 100.42 190.08C100.13 190.22 100.22 190.6 99.9 190.88C99.66 191.09 99.15 191.05 99.33 191.01C98.87 190.55 98.41 190.09 97.95 189.63C97.81 190.54 97.39 191.07 96.54 191.43C97.1 191.75 97.67 192.08 98.23 192.4C98.1 190.42 98.07 188.45 98.14 186.47C98.17 185.02 95.92 185.02 95.87 186.47Z" fill="#3A3A3A"/>
<path d="M96.08 216.85C96.01 218.57 96.4699 220.24 97.3899 221.69C98.17 222.91 100.12 221.78 99.33 220.55C98.6 219.41 98.27 218.2 98.32 216.85C98.39 215.4 96.14 215.4 96.08 216.85Z" fill="#3A3A3A"/>
<path d="M99.94 217.87C99.94 218.47 99.94 219.06 99.94 219.66C99.94 221.11 102.19 221.11 102.19 219.66C102.19 219.06 102.19 218.47 102.19 217.87C102.19 216.42 99.94 216.42 99.94 217.87Z" fill="#3A3A3A"/>
<path d="M98.87 247.23C98.87 246.46 98.87 245.7 98.87 244.93C98.87 243.48 96.62 243.48 96.62 244.93C96.62 245.7 96.62 246.46 96.62 247.23C96.62 248.68 98.87 248.68 98.87 247.23Z" fill="#3A3A3A"/>
<path d="M100.16 246.15C100.44 246.07 100.72 245.98 101.01 245.96C101.08 245.95 101.2 245.93 101.27 245.95C101.3 245.96 101.48 246.07 101.46 246.07C101.29 246.11 101.83 245.63 101.41 245.86C101.19 245.98 100.96 246.18 100.79 246.36C99.93 247.31 100.41 249.16 101.85 249.1C103.29 249.04 103.3 246.79 101.85 246.85C101.88 246.85 101.91 246.85 101.94 246.86C102.11 246.96 102.27 247.05 102.44 247.15C102.6 247.32 102.64 247.5 102.55 247.68C102.47 247.83 102.46 247.87 102.52 247.83C102.56 247.84 102.86 247.58 102.9 247.55C103.14 247.35 103.34 247.13 103.49 246.85C103.81 246.24 103.72 245.49 103.38 244.91C102.56 243.52 100.93 243.6 99.57 243.98C98.17 244.36 98.76 246.53 100.16 246.15Z" fill="#3A3A3A"/>
<path d="M96.36 266.13C96.36 266.81 96.36 267.49 96.36 268.17C96.36 269.62 98.61 269.62 98.61 268.17C98.61 267.49 98.61 266.81 98.61 266.13C98.61 264.68 96.36 264.68 96.36 266.13Z" fill="#3A3A3A"/>
<path d="M99.82 265.81C99.28 266.71 99.28 267.85 99.85 268.73C100.63 269.94 102.58 268.82 101.79 267.59C101.64 267.35 101.61 267.19 101.76 266.94C102.51 265.7 100.57 264.56 99.82 265.81Z" fill="#3A3A3A"/>
<path d="M96.11 290.38C96.11 291.15 96.11 291.91 96.11 292.68C96.11 294.13 98.36 294.13 98.36 292.68C98.36 291.91 98.36 291.15 98.36 290.38C98.36 288.94 96.11 288.93 96.11 290.38Z" fill="#3A3A3A"/>
<path d="M98.97 292.52C100.19 294.73 103.7 293.81 103.49 291.22C103.37 289.77 101.38 289.78 101.24 291.22C101.13 292.38 101.02 293.55 100.91 294.71C100.85 295.32 101.47 295.84 102.04 295.84C102.7 295.84 103.11 295.32 103.17 294.71C103.28 293.55 103.39 292.38 103.5 291.22C102.75 291.22 102 291.22 101.25 291.22C101.28 291.55 101.11 291.72 100.93 291.38C100.21 290.12 98.27 291.26 98.97 292.52Z" fill="#3A3A3A"/>
<path d="M95.6 312.85C95.6 313.87 95.6 314.89 95.6 315.91C95.6 317.36 97.85 317.36 97.85 315.91C97.85 314.89 97.85 313.87 97.85 312.85C97.85 311.4 95.6 311.4 95.6 312.85Z" fill="#3A3A3A"/>
<path d="M100.49 312.92C98.6099 313.39 98.6 316.37 100.5 316.82C100.41 316.13 100.32 315.45 100.23 314.76C99.54 315.06 98.8599 315.36 98.1699 315.66C97.6099 315.9 97.4799 316.72 97.7699 317.2C98.1099 317.77 98.7499 317.85 99.3099 317.6C99.9999 317.3 100.68 317 101.37 316.7C102.27 316.3 101.99 314.85 101.1 314.64C100.76 314.56 101.47 314.98 101.27 314.77C101.28 314.8 101.3 314.83 101.31 314.86C101.28 314.73 101.28 314.73 101.31 314.87C101.34 314.63 101.3 314.93 101.26 314.96C101.5 314.77 100.72 315.18 101.09 315.08C102.5 314.74 101.9 312.57 100.49 312.92Z" fill="#3A3A3A"/>
<path d="M96.11 334.04C96.11 335.06 96.11 336.08 96.11 337.1C96.11 338.55 98.36 338.55 98.36 337.1C98.36 336.08 98.36 335.06 98.36 334.04C98.36 332.59 96.11 332.59 96.11 334.04Z" fill="#3A3A3A"/>
<path d="M100.31 335.34C98.91 336.43 99.25 338.68 100.64 339.6C100.95 339.81 101.46 339.81 101.78 339.6C102.66 339 102.99 337.79 102.29 336.91C101.61 336.07 100.29 336.04 99.56 336.83C98.57 337.89 100.16 339.48 101.15 338.42C100.81 338.78 100.11 338.03 100.65 337.66C101.03 337.66 101.41 337.66 101.79 337.66C101.84 337.69 101.73 337.6 101.73 337.6C101.7 337.52 101.68 337.43 101.68 337.36C101.68 337.3 101.69 337.19 101.67 337.31C101.68 337.24 101.71 337.16 101.73 337.09C101.67 337.24 101.83 337.02 101.76 337.08C101.7 337.13 101.92 336.95 101.92 336.95C102.4 336.58 102.31 335.75 101.92 335.36C101.43 334.86 100.79 334.96 100.31 335.34Z" fill="#3A3A3A"/>
<path d="M95.16 352.2C95.58 353.36 95.72 354.51 95.59 355.74C95.53 356.35 96.15 356.86 96.72 356.87C97.38 356.88 97.78 356.35 97.85 355.74C98 354.34 97.82 352.93 97.34 351.6C96.84 350.25 94.66 350.84 95.16 352.2Z" fill="#3A3A3A"/>
<path d="M101.2 354.87C101 355.03 100.82 354.86 100.98 354.65C100.6 355.12 100.52 355.78 100.98 356.24C101.37 356.63 102.19 356.72 102.57 356.24C103.26 355.38 103.38 354.13 102.55 353.3C101.72 352.47 100.47 352.59 99.61 353.28C99.14 353.66 99.21 354.47 99.61 354.87C100.08 355.34 100.73 355.25 101.2 354.87Z" fill="#3A3A3A"/>
<path d="M101.83 356.36C102 356.36 102.17 356.36 102.34 356.36C103.79 356.36 103.79 354.11 102.34 354.11C102.17 354.11 102 354.11 101.83 354.11C100.38 354.11 100.38 356.36 101.83 356.36Z" fill="#3A3A3A"/>
<path d="M95.09 373.36C95.09 373.96 95.09 374.55 95.09 375.15C95.09 376.6 97.34 376.6 97.34 375.15C97.34 374.55 97.34 373.96 97.34 373.36C97.34 371.91 95.09 371.91 95.09 373.36Z" fill="#3A3A3A"/>
<path d="M101.71 374.44C101.88 373.85 102.39 373.44 102.53 372.81C102.68 372.14 102.53 371.42 102.03 370.95C101.01 369.98 99.21 370.79 98.18 371.38C97.17 371.96 96.03 373.22 96.45 374.49C96.7 375.23 97.5 375.62 98.24 375.38C98.54 375.28 98.82 375.09 99.04 374.86C99.17 374.73 99.31 374.55 99.39 374.39C99.55 374.05 99.58 374.27 99.27 374.24C99 374.13 98.74 374.02 98.47 373.91C98.51 373.94 98.55 373.98 98.6 374.01C99.08 374.39 99.72 374.47 100.19 374.01C100.59 373.62 100.66 372.8 100.19 372.42C99.65 371.98 99.04 371.83 98.4 372.18C98.12 372.34 97.89 372.57 97.7 372.83C97.66 372.89 97.4 373.27 97.47 373.25C97.67 373.25 97.87 373.25 98.07 373.25C98.31 373.97 98.52 374.17 98.69 373.84C98.71 373.81 98.73 373.79 98.74 373.76C98.88 373.65 98.98 373.53 99.12 373.43C99.47 373.19 99.88 373.04 100.28 372.9C100.38 372.87 100.48 372.84 100.57 372.81C100.87 372.79 100.87 372.71 100.56 372.57C100.29 372.2 100.38 372.35 100.23 372.48C99.89 372.78 99.63 373.44 99.5 373.85C99.13 375.24 101.3 375.83 101.71 374.44Z" fill="#3A3A3A"/>
<path d="M201.35 114.02C201.3 113.65 201.07 113.64 200.79 113.38C200.7 113.59 200.61 113.81 200.52 114.02C201.76 114.15 203 114.28 204.23 114.41C205.53 114.55 207.48 114.45 208.63 115.04C208.6 114.84 208.58 114.65 208.55 114.45C207.8 115.16 206.44 115.86 206.81 117C207.05 117.74 207.81 118.25 208.22 118.87C208.62 119.48 208.71 119.41 208.06 119.91C207.72 120.17 207.2 120.34 206.79 120.44C206.32 120.55 206.52 121.27 206.99 121.16C207.68 121 209.4 120.39 209.53 119.58C209.62 119 209.08 118.71 208.75 118.34C208.25 117.8 207.69 117.4 207.82 116.6C207.94 115.84 208.53 115.5 209.08 114.98C209.25 114.82 209.22 114.5 209 114.39C207.97 113.87 206.7 113.92 205.57 113.8C203.88 113.62 202.19 113.44 200.51 113.27C200.19 113.24 200.01 113.7 200.24 113.91C200.15 113.83 200.61 114.22 200.61 114.22C200.69 114.69 201.41 114.49 201.35 114.02Z" fill="white"/>
<path d="M207.78 120.2C206.81 120.49 206.08 120.37 205.46 119.49C205.26 119.2 205.18 118.84 204.88 118.62C204.3 118.18 203.64 118.33 203.07 118.72C202.75 118.94 202.46 119.55 202.11 119.68C201.25 120 201.52 118.62 201.48 118.11C201.35 116.63 201.12 115.15 200.91 113.67C200.84 113.19 200.12 113.4 200.19 113.87C200.36 115.03 200.51 116.19 200.65 117.35C200.75 118.17 200.61 119.14 200.78 119.93C200.9 120.52 201.2 120.86 201.84 120.71C202.4 120.58 202.66 120.08 203.09 119.76C204.59 118.63 204.61 119.81 205.19 120.52C205.92 121.42 207 121.23 208 120.94C208.44 120.78 208.25 120.06 207.78 120.2Z" fill="white"/>
<path d="M209.39 118.9C209.12 118.27 208.48 117.99 208 117.56C207.81 117.39 207.58 117.46 207.45 117.6C207.4 117.49 207.35 117.37 207.32 117.24C207.04 116.01 207.65 115.92 208.46 115.34C208.66 115.19 208.74 114.82 208.46 114.69C208.23 114.59 207.96 114.54 207.7 114.52C207.67 114.41 207.6 114.31 207.45 114.27C205.42 113.82 203.36 113.95 201.3 113.84C201 113.83 200.86 114.19 200.97 114.41C200.93 114.49 200.91 114.58 200.93 114.67V114.68C200.89 114.74 200.87 114.8 200.88 114.87C200.93 115.67 201.02 116.47 201.14 117.27C201.16 117.44 201.27 117.52 201.39 117.53C201.4 118.04 201.35 118.51 201.3 119C201.27 119.4 201.2 119.7 201.71 119.85C202.41 120.06 202.81 119.22 203.36 118.98C203.95 118.73 204.49 118.81 205.03 118.93C205.03 118.95 205.02 118.98 205.03 119C205.21 119.49 205.47 119.9 205.9 120.18C205.5 120.11 205.35 120.75 205.77 120.91C206.83 121.32 208.42 121.03 209.19 120.16C209.51 119.83 209.58 119.35 209.39 118.9Z" fill="white"/>
<path d="M208.73 119.23C208.21 120.06 207.49 120.44 206.58 120.37C206.04 120.24 205.68 119.96 205.52 119.53C205.38 119.4 205.33 119.19 205.16 119.08C204.64 118.75 204.2 118.59 203.55 118.81C203.08 118.96 203.01 119.27 202.62 119.43L202.34 119.71C201.32 119.81 200.93 119.33 201.18 118.26C200.98 116.71 200.84 115.16 200.83 113.59C200.83 113.11 200.08 113.11 200.08 113.59C200.09 114.93 200.18 116.26 200.34 117.59C200.42 118.27 200.38 119.52 200.72 120.12C201.34 121.22 202.03 120.62 202.87 120.23C203.56 119.91 203.92 119.46 204.99 120.32C205.14 120.44 205.16 120.69 205.33 120.83C205.77 121.19 206.59 121.14 207.09 121.09C208.26 120.96 209.36 120.49 209.47 119.23C209.52 118.75 208.77 118.76 208.73 119.23Z" fill="#F9F9F9"/>
<path d="M84.94 39.59C85.05 38.95 84.04 38.01 83.62 37.61C83.7 37.43 83.74 37.22 83.71 36.98C83.7 36.87 83.66 36.77 83.62 36.68C83.6 36.37 83.54 36.05 83.41 35.8C83.29 35.58 83.05 35.41 82.82 35.44C82.76 35.39 82.7 35.35 82.61 35.34C81.49 35.21 79.11 36.77 80.45 37.97C80.96 38.43 81.89 38.59 82.63 38.39C82.86 38.96 83.23 39.42 83.7 39.76C83.83 39.93 84.03 40.03 84.24 40.06C84.35 40.11 84.44 40.16 84.56 40.2C84.95 40.31 85.14 39.84 84.94 39.59Z" fill="#F9F9F9"/>
<path d="M82.71 36.61C82.7 36.6 82.68 36.59 82.67 36.57C82.66 36.56 82.66 36.54 82.66 36.53C82.7 36.29 82.52 36 82.21 36.09C82.2 36.09 82.19 36.1 82.18 36.1C81.93 36.01 81.65 36.07 81.44 36.34C81.43 36.35 81.41 36.35 81.4 36.35C80.56 36.76 81.22 37.74 81.95 37.7C82.08 37.73 82.22 37.75 82.36 37.7C82.79 37.56 82.96 36.99 82.71 36.61Z" fill="#E5E5E5"/>
<path d="M8.12996 39.54C7.64996 39.54 7.64996 40.29 8.12996 40.29C8.60996 40.29 8.60996 39.54 8.12996 39.54Z" fill="#E5E5E5"/>
<path d="M9.90999 39.54C9.42999 39.54 9.42999 40.29 9.90999 40.29C10.4 40.29 10.4 39.54 9.90999 39.54Z" fill="#E5E5E5"/>
<path d="M11.7 39.51C11.22 39.51 11.22 40.26 11.7 40.26C12.18 40.26 12.19 39.51 11.7 39.51Z" fill="#E5E5E5"/>
<path d="M141.74 37.3C129.52 36.92 117.21 36.08 104.98 36.4C104.5 36.41 104.5 37.16 104.98 37.15C117.21 36.82 129.52 37.66 141.74 38.05C142.22 38.07 142.22 37.32 141.74 37.3Z" fill="#004787"/>
<path d="M135.1 49.1C125.29 48.94 115.47 48.79 105.66 48.63C105.18 48.62 105.18 49.37 105.66 49.38C115.47 49.54 125.29 49.69 135.1 49.85C135.59 49.86 135.59 49.11 135.1 49.1Z" fill="#004787"/>
<path d="M159.11 63.21C149.75 63.16 140.39 63.12 131.02 63.07C130.54 63.07 130.54 63.82 131.02 63.82C140.38 63.87 149.74 63.91 159.11 63.96C159.59 63.96 159.59 63.21 159.11 63.21Z" fill="#004787"/>
<path d="M131.02 77.54C123.76 77.62 116.5 77.7 109.23 77.79C108.75 77.8 108.75 78.55 109.23 78.54C116.49 78.46 123.75 78.38 131.02 78.29C131.5 78.29 131.5 77.54 131.02 77.54Z" fill="#004787"/>
<path d="M130.85 108.56H109.23C108.75 108.56 108.75 109.31 109.23 109.31H130.85C131.33 109.31 131.33 108.56 130.85 108.56Z" fill="#004787"/>
<path d="M151.79 126.81C142.84 127.66 133.88 128.02 124.89 127.88C124.41 127.87 124.41 128.62 124.89 128.63C133.88 128.76 142.84 128.41 151.79 127.56C152.27 127.52 152.27 126.77 151.79 126.81Z" fill="#004787"/>
<path d="M180.04 148.68C167.33 148.83 154.62 148.97 141.91 149.12C141.43 149.13 141.43 149.88 141.91 149.87C154.62 149.72 167.33 149.58 180.04 149.43C180.53 149.42 180.53 148.67 180.04 148.68Z" fill="#004787"/>
<path d="M142.6 191.15C153.89 191.3 165.18 191.22 176.47 190.92C176.95 190.91 176.95 190.16 176.47 190.17C165.18 190.47 153.89 190.55 142.6 190.4C142.11 190.4 142.11 191.15 142.6 191.15Z" fill="#004787"/>
<path d="M126.94 219.78C134.88 219.78 142.83 219.78 150.77 219.78C151.25 219.78 151.25 219.03 150.77 219.03C142.83 219.03 134.88 219.03 126.94 219.03C126.45 219.03 126.45 219.78 126.94 219.78Z" fill="#004787"/>
<path d="M111.62 247.5C119.35 247.46 127.05 247.74 134.76 248.34C135.24 248.38 135.24 247.63 134.76 247.59C127.06 247 119.35 246.72 111.62 246.75C111.13 246.75 111.13 247.5 111.62 247.5Z" fill="#004787"/>
<path d="M107.02 269.32C117.58 269.22 128.13 269.39 138.68 269.85C139.16 269.87 139.16 269.12 138.68 269.1C128.13 268.64 117.58 268.47 107.02 268.57C106.54 268.57 106.54 269.32 107.02 269.32Z" fill="#004787"/>
<path d="M153.83 37.92C165.74 38.08 177.66 38.24 189.57 38.39C190.05 38.4 190.05 37.65 189.57 37.64C177.66 37.48 165.74 37.32 153.83 37.17C153.35 37.16 153.35 37.91 153.83 37.92Z" fill="#C1002E"/>
<path d="M148.55 50.77C158.31 50.49 168.07 50.51 177.83 50.83C178.31 50.85 178.31 50.1 177.83 50.08C168.07 49.76 158.31 49.74 148.55 50.02C148.07 50.03 148.06 50.78 148.55 50.77Z" fill="#C1002E"/>
<path d="M141.92 109.62C150.94 109.66 159.96 109.7 168.98 109.73C169.46 109.73 169.46 108.98 168.98 108.98C159.96 108.94 150.94 108.9 141.92 108.87C141.43 108.86 141.43 109.61 141.92 109.62Z" fill="#C1002E"/>
<path d="M159.1 128.05C168.75 127.93 178.39 127.82 188.04 127.7C188.52 127.69 188.52 126.94 188.04 126.95C178.39 127.07 168.75 127.18 159.1 127.3C158.62 127.3 158.62 128.05 159.1 128.05Z" fill="#C1002E"/>
<path d="M141.74 248.68C152.69 248.75 163.64 248.82 174.59 248.88C175.07 248.88 175.07 248.13 174.59 248.13C163.64 248.06 152.69 247.99 141.74 247.93C141.26 247.93 141.26 248.68 141.74 248.68Z" fill="#C1002E"/>
<path d="M195.53 127.9C207.73 127.74 219.93 127.83 232.13 128.16C232.61 128.17 232.61 127.42 232.13 127.41C219.93 127.08 207.73 126.99 195.53 127.15C195.05 127.15 195.05 127.9 195.53 127.9Z" fill="#007208"/>
<path d="M181.06 109.23C193.94 109.32 206.82 109.41 219.7 109.49C220.18 109.49 220.18 108.74 219.7 108.74C206.82 108.65 193.94 108.56 181.06 108.48C180.58 108.47 180.58 109.22 181.06 109.23Z" fill="#007208"/>
<path d="M181 249.28C182.19 249.08 183.37 248.88 184.56 248.68C185.03 248.6 184.83 247.88 184.36 247.96C183.17 248.16 181.99 248.36 180.8 248.56C180.33 248.64 180.53 249.36 181 249.28Z" fill="#007208"/>
<path d="M185.83 50.66C200.81 50.72 215.79 50.61 230.77 50.35C231.25 50.34 231.25 49.59 230.77 49.6C215.79 49.86 200.81 49.97 185.83 49.91C185.35 49.91 185.35 50.66 185.83 50.66Z" fill="#007208"/>
<path d="M146.83 162C146.62 162.41 146.42 162.81 146.21 163.22C145.99 163.65 146.64 164.03 146.86 163.6C147.07 163.19 147.27 162.79 147.48 162.38C147.69 161.95 147.05 161.57 146.83 162Z" fill="#E0E0E0"/>
<path d="M145.63 161.53C145.04 161.83 144.64 162.33 144.46 162.97C144.33 163.44 145.05 163.63 145.18 163.17C145.31 162.71 145.58 162.39 146.01 162.18C146.44 161.96 146.06 161.31 145.63 161.53Z" fill="#E0E0E0"/>
<path d="M146.34 173.19C174.71 172.16 203.1 172.33 231.45 173.69C231.93 173.71 231.93 172.96 231.45 172.94C203.1 171.58 174.71 171.41 146.34 172.44C145.85 172.46 145.85 173.21 146.34 173.19Z" fill="#E0E0E0"/>
<path d="M162.69 0.850006C158.83 0.850006 158.82 6.85001 162.69 6.85001C166.55 6.85001 166.56 0.850006 162.69 0.850006Z" fill="#E0E0E0"/>
<path d="M172.72 4.23C186.68 4.02 200.64 4.2 214.59 4.8C215.07 4.82 215.07 4.07 214.59 4.05C200.64 3.46 186.68 3.27 172.72 3.48C172.24 3.49 172.24 4.24 172.72 4.23Z" fill="#E0E0E0"/>
<path d="M185.66 143.86C188.13 143.86 190.6 143.86 193.06 143.86C193.54 143.86 193.54 143.11 193.06 143.11C190.59 143.11 188.12 143.11 185.66 143.11C185.18 143.11 185.18 143.86 185.66 143.86Z" fill="#E0E0E0"/>
<path d="M188.98 143.75C188.85 146.3 188.72 148.85 188.59 151.41C188.57 151.89 189.32 151.89 189.34 151.41C189.47 148.86 189.6 146.31 189.73 143.75C189.76 143.26 189.01 143.27 188.98 143.75Z" fill="#E0E0E0"/>
<path d="M184.81 152.29C187.65 152.29 190.48 152.29 193.32 152.29C193.8 152.29 193.8 151.54 193.32 151.54C190.48 151.54 187.65 151.54 184.81 151.54C184.33 151.54 184.33 152.29 184.81 152.29Z" fill="#E0E0E0"/>
<path d="M354.34 11.83C354.23 193.89 354.11 375.94 354 558C240.24 558 126.47 558 12.71 558C126.59 375.94 240.46 193.89 354.34 11.83Z" fill="#606060"/>
<path d="M354.34 11.83C354.23 193.89 354.11 375.94 354 558C240.24 558 126.47 558 12.71 558C126.59 375.94 240.46 193.89 354.34 11.83Z" stroke="#606060" stroke-width="0.75" stroke-miterlimit="10"/>
<path d="M65.04 475.15C65.47 475.15 65.91 475.15 66.34 475.15C162.11 475.18 257.88 475.21 353.65 475.23C353.77 370.89 353.88 266.55 354 162.21C322.52 162.38 291.04 162.55 259.56 162.72" fill="white"/>
<path d="M289.87 115.03L298.09 101.76L354.34 102.18V114.95L289.87 115.03Z" fill="#3A3A3A"/>
<path d="M307.19 87.2L354 86.89" stroke="#3A3A3A" stroke-miterlimit="10"/>
<path d="M343.62 108.09C342.58 108.07 342.89 106.29 343.79 106.58C343.04 106.34 342.12 106.86 341.94 107.63C341.75 108.45 342.19 109.22 342.99 109.48C344.18 109.86 345.6 109.1 345.87 107.86C346.18 106.42 345.05 105.12 343.62 105.1C342.84 105.09 342.08 105.8 342.12 106.6C342.16 107.41 342.78 108.07 343.62 108.09Z" fill="#3A3A3A"/>
<path d="M336.99 107.58C337.99 108.11 338.99 108.64 339.98 109.17C339.98 108.31 339.98 107.44 339.98 106.58C339.05 107.05 338.13 107.52 337.2 107.99C336.48 108.36 336.27 109.37 336.66 110.04C337.09 110.77 337.99 110.95 338.71 110.58C339.64 110.11 340.56 109.64 341.49 109.17C342.48 108.67 342.45 107.09 341.49 106.58C340.49 106.05 339.49 105.52 338.5 104.99C337.79 104.61 336.87 104.81 336.45 105.53C336.06 106.21 336.28 107.2 336.99 107.58Z" fill="#606060"/>
<path d="M343.48 107.23C344.58 107.64 345.52 108.43 346.16 109.41C346.46 108.68 346.76 107.94 347.06 107.21C346.26 107.41 345.47 107.42 344.65 107.32C343.84 107.22 343.15 108.08 343.15 108.82C343.15 109.71 343.84 110.22 344.65 110.32C345.73 110.45 346.8 110.36 347.86 110.1C348.77 109.88 349.28 108.7 348.76 107.9C347.66 106.23 346.15 105.04 344.28 104.34C343.52 104.05 342.64 104.66 342.43 105.39C342.2 106.23 342.71 106.94 343.48 107.23Z" fill="#606060"/>
<path d="M340.55 93.01C341.52 93.01 341.52 91.51 340.55 91.51C339.59 91.51 339.59 93.01 340.55 93.01Z" fill="#3A3A3A"/>
<path d="M340.81 96.07C341.78 96.07 341.78 94.57 340.81 94.57C339.84 94.57 339.84 96.07 340.81 96.07Z" fill="#3A3A3A"/>
<path d="M340.81 98.88C341.78 98.88 341.78 97.38 340.81 97.38C339.84 97.38 339.84 98.88 340.81 98.88Z" fill="#3A3A3A"/>
<path d="M343.11 93.01C344.56 93.01 346 93.01 347.45 93.01C348.42 93.01 348.42 91.51 347.45 91.51C346 91.51 344.56 91.51 343.11 91.51C342.14 91.51 342.14 93.01 343.11 93.01Z" fill="#3A3A3A"/>
<path d="M343.36 96.32C344.72 96.32 346.08 96.32 347.45 96.32C348.42 96.32 348.42 94.82 347.45 94.82C346.09 94.82 344.73 94.82 343.36 94.82C342.4 94.82 342.39 96.32 343.36 96.32Z" fill="#3A3A3A"/>
<path d="M342.85 99.95C344.21 99.86 345.57 99.76 346.93 99.67C347.89 99.6 347.89 98.1 346.93 98.17C345.57 98.26 344.21 98.36 342.85 98.45C341.9 98.52 341.89 100.02 342.85 99.95Z" fill="#3A3A3A"/>
<path d="M325.8 96.02C326.09 96.89 326.71 98.31 327.68 98.61C328.89 98.99 329.54 97.28 330.02 96.49C330.53 95.67 329.23 94.91 328.72 95.73C328.56 96 328.39 96.27 328.23 96.53C328.15 96.66 327.99 96.83 327.96 96.98C327.92 97.04 327.89 97.1 327.85 97.16C328.13 97.21 328.2 97.18 328.07 97.07C328.02 96.88 327.71 96.61 327.61 96.43C327.46 96.17 327.35 95.91 327.25 95.63C326.94 94.71 325.49 95.1 325.8 96.02Z" fill="#3A3A3A"/>
<path d="M320.97 64.63L354.31 64.68" stroke="#3A3A3A" stroke-width="2" stroke-miterlimit="10"/>
<path d="M220.55 319.97C222.48 319.97 222.48 316.97 220.55 316.97C218.62 316.97 218.62 319.97 220.55 319.97Z" fill="#FFBF00"/>
<path d="M211.3 279.85C221.21 287.67 231.14 295.47 241.06 303.28C246.28 307.39 251.51 311.5 256.73 315.61C259.06 317.44 261.38 319.27 263.7 321.1C264.88 322.03 266.07 322.97 267.25 323.9C267.79 324.33 268.34 324.76 268.88 325.19C270.39 326.55 270.14 325.82 268.12 323C268.52 319.92 268.93 316.84 269.33 313.75C272.04 311.49 272.52 310.81 270.78 311.71C270.24 311.95 269.71 312.18 269.17 312.42C267.82 313.01 266.48 313.6 265.13 314.18C262.43 315.35 259.73 316.52 257.03 317.69C251.64 320.04 246.26 322.42 240.94 324.95C230.35 329.99 220.1 335.66 210.62 342.59C216.64 346.04 222.66 349.5 228.68 352.95C230.62 325.8 231.5 298.57 231.79 271.35C231.95 255.9 207.95 255.89 207.79 271.35C207.51 298.57 206.62 325.8 204.68 352.95C204.07 361.55 215.54 368.57 222.74 363.31C235.57 353.94 249.81 346.95 264.3 340.54C268.07 338.87 271.85 337.24 275.63 335.6C279.45 333.94 283.91 332.59 287.03 329.74C294.58 322.84 291.86 312.94 284.65 307.25C265.87 292.44 247.05 277.68 228.28 262.87C223.2 258.86 216.27 257.91 211.31 262.87C207.14 267.04 206.19 275.81 211.3 279.85Z" fill="#FFBF00"/>
<path d="M264.92 309.81C262.95 306.76 259.66 304.6 256.14 304.01C255.34 303.37 254.45 302.83 253.51 302.41C252.04 301 250.27 299.93 248.31 299.24C247.78 295.91 245.91 292.86 242.69 290.97C237.35 287.85 229.21 289.47 226.27 295.28C224.55 298.69 223.33 302.68 223.01 306.69C222.89 306.84 222.76 306.98 222.64 307.13C218.09 313.02 219.38 322.22 223.51 327.96C228.08 334.31 236.26 336.14 243.4 333.36C243.8 333.2 244.19 333.03 244.57 332.86C247.24 333.38 250.05 333.01 252.54 331.41C255.23 329.69 257.93 327.96 260.62 326.24C263.23 324.57 265.3 322.1 266.13 319.07C266.92 316.18 266.57 312.36 264.92 309.81Z" fill="#FFBF00"/>
<path d="M269.074 423.717L231.261 429.795L232.449 437.19L270.263 431.112L269.074 423.717Z" fill="#333333" stroke="#333333" stroke-width="2" stroke-miterlimit="10"/>
<path d="M227.98 350.28C231.92 360.52 234.62 371.12 237.31 381.74C238.49 386.38 239.12 391.91 241.18 396.25C242.11 398.21 243.85 400.02 246.23 399.7C253.8 398.67 247.54 384.82 246.54 381.18C243.35 369.61 239.94 358.1 235.84 346.81C235.18 345.01 232.28 345.79 232.95 347.61C235.84 355.54 238.39 363.57 240.75 371.67C241.84 375.41 242.88 379.16 243.92 382.91C244.44 384.79 244.95 386.67 245.46 388.55C245.8 389.8 246.14 391.06 246.48 392.31C244.77 394.9 243.79 395.39 243.54 393.79C242.71 392.85 242.57 390.1 242.25 388.85C241.72 386.81 241.2 384.76 240.68 382.72C239.78 379.18 238.9 375.64 237.97 372.11C235.96 364.46 233.74 356.88 230.9 349.49C230.19 347.7 227.29 348.47 227.98 350.28Z" fill="#333333"/>
<path d="M233.36 347.94C236.24 354.93 240.38 361.03 246.03 366.07C252.16 371.54 259.21 375.91 265.39 381.3C270.98 386.17 272.67 394.96 271.24 402.03C270.76 404.38 269.97 407.09 268.64 409.11C267.92 410.21 266.85 410.99 266.18 412.15C264.68 414.76 264.79 417.72 265.99 420.41C266.29 419.68 266.59 418.94 266.89 418.21C254.85 420.22 242.81 422.23 230.76 424.24C231.39 424.72 232.03 425.2 232.66 425.69C232.44 423.45 231.91 421.65 230.37 419.92C227.99 417.26 224.66 416.52 223.37 412.77C220.64 404.81 222.06 394.8 224.81 387.11C227.14 380.59 230.41 374.32 231.51 367.42C232.48 361.28 231.87 355.09 230.68 349.02C230.31 347.13 227.42 347.93 227.79 349.82C229.16 356.8 229.63 363.95 227.69 370.87C225.73 377.84 222.17 384.24 220.38 391.26C218.79 397.52 218.88 403.97 219.88 410.32C220.25 412.65 220.59 415.1 222.04 417.04C224.5 420.34 229.18 420.86 229.66 425.69C229.76 426.73 230.53 427.31 231.56 427.14C243.6 425.13 255.64 423.12 267.69 421.11C268.74 420.93 268.94 419.69 268.59 418.91C266.88 415.06 270.89 411.69 272.37 408.32C273.82 405.02 274.63 401.45 274.72 397.84C274.86 391.81 273.02 384.83 268.79 380.35C264.02 375.29 257.44 371.56 252.04 367.21C245.16 361.66 239.68 355.44 236.27 347.15C235.53 345.39 232.63 346.16 233.36 347.94Z" fill="#333333"/>
<path d="M271.4 388.04C269.25 382.31 266.24 378.19 261.23 374.74C258.53 372.89 255.38 371.1 252.35 369.12C251.6 367.99 250.59 367.38 249.53 367.18C246.66 365.08 244.09 362.71 242.39 359.84C241.41 358.18 238.82 359.69 239.8 361.35C240.05 361.77 240.32 362.16 240.59 362.55C240.26 362.87 240.11 363.35 240.3 363.93C241.89 368.59 243.52 373.24 245.05 377.92C244.62 378.78 244.54 379.84 245.04 381.07C245.89 383.17 246.95 385.22 247.91 387.3C248.06 387.83 248.21 388.35 248.35 388.88C248.68 390.13 249.82 392.77 249.43 394.07C248.62 396.81 246.18 398.3 243.93 396.71C240.14 394.04 239.44 384.67 238.42 380.26C237.07 374.44 235.65 368.68 233.49 363.09C233 361.83 230.95 361.51 230.6 363.09C229.77 366.75 228.98 370.42 228.18 374.1C227.57 374.8 227.16 375.73 227.14 376.92C227.13 377.57 227.12 378.26 227.11 378.95C226.98 379.55 226.85 380.14 226.72 380.74C226.56 380.86 226.42 381.04 226.31 381.27C223.14 388.07 220.92 393.85 221.17 401.51C221.39 408.37 221.66 413.25 226.7 418.06C228.39 419.67 229.16 420.59 230.4 422.73C230.71 423.26 230.63 423.91 231.19 424.3C232.83 425.44 234.39 424.83 236.38 424.52C245.35 423.14 254.31 421.76 263.28 420.38C263.95 420.28 264.26 419.83 264.32 419.32C266.34 418.42 266.71 417.04 267.5 415.05C268.73 411.96 270.49 409.21 271.77 406.14C274.18 400.38 273.56 393.8 271.4 388.04Z" fill="#333333"/>
<path d="M247.19 392.18C246.94 391.58 246.49 391.2 245.95 390.99C245.5 390.37 244.65 390.14 243.96 390.54C243.68 390.7 243.48 390.96 243.35 391.25C243.28 391.3 243.22 391.34 243.15 391.4C242.72 391.66 242.44 392.1 242.4 392.66C242.4 392.71 242.41 392.76 242.4 392.81C242.36 393.19 242.41 393.58 242.56 393.94C242.74 394.5 243.08 395 243.62 395.29C244.5 395.76 245.87 395.74 246.62 395.04C247.4 394.35 247.58 393.11 247.19 392.18Z" fill="white"/>
<path d="M129.24 371.88L65.04 475.14L129.24 475.16V367.36" fill="#444443"/>
<path d="M86.64 455.41C88.57 455.41 88.57 452.41 86.64 452.41C84.71 452.41 84.7 455.41 86.64 455.41Z" fill="#444443"/>
<path d="M89.83 456.05C91.76 456.05 91.76 453.05 89.83 453.05C87.9 453.05 87.9 456.05 89.83 456.05Z" fill="#60605F"/>
<path d="M101.7 456.31C103.63 456.31 103.63 453.31 101.7 453.31C99.77 453.31 99.77 456.31 101.7 456.31Z" fill="#60605F"/>
<path d="M114.85 456.18C116.78 456.18 116.78 453.18 114.85 453.18C112.92 453.18 112.92 456.18 114.85 456.18Z" fill="#60605F"/>
<path d="M89.19 448.14C97.87 448.14 106.55 448.14 115.23 448.14C117.16 448.14 117.16 445.14 115.23 445.14C106.55 445.14 97.87 445.14 89.19 445.14C87.26 445.14 87.26 448.14 89.19 448.14Z" fill="#60605F"/>
<path d="M116.57 446.65C116.32 442.85 116.95 437.15 115.69 433.52C115.32 432.43 115.29 432.08 114.19 431.54C111.94 430.44 106.39 431.33 103.87 431.32C99.36 431.3 94.85 431.33 90.34 431.39C88.41 431.41 88.41 434.41 90.34 434.39C96.14 434.32 101.93 434.3 107.73 434.35C108.61 434.36 110.85 433.97 111.59 434.39C113.02 435.19 112.65 435.89 112.93 437.28C113.53 440.24 113.35 443.63 113.56 446.66C113.69 448.56 116.69 448.58 116.57 446.65Z" fill="#60605F"/>
<path d="M88.57 432.98C88.6 435 89.16 436.95 89.17 438.98C89.18 441.43 88.66 443.76 87.8 446.04C88.78 446.17 89.76 446.31 90.75 446.44C90.66 442.33 90.61 438.23 90.98 434.13C91.15 432.21 88.15 432.22 87.98 434.13C87.61 438.23 87.66 442.33 87.75 446.44C87.79 448.21 90.11 448.38 90.7 446.84C91.54 444.62 92.06 442.32 92.16 439.94C92.26 437.58 91.62 435.33 91.58 432.99C91.54 431.05 88.54 431.04 88.57 432.98Z" fill="#60605F"/>
<path d="M107.57 439.71C111.82 439.71 116.06 439.75 120.31 439.71C122.17 439.69 124.03 439.82 124.67 437.7C125.55 434.81 123.91 429.85 123.55 426.87C123.34 425.14 123.75 421.49 121.93 420.45C119.73 419.2 114.31 420.53 111.82 420.63C109.6 420.73 107.37 420.82 105.15 420.92C104.05 420.97 102.21 420.73 101.19 421.38C99.4 422.52 99.95 424.81 100.04 426.63C100.23 430.27 99.62 435.21 100.87 438.62C101.04 439.08 101.39 439.58 101.92 439.67C105.92 440.34 110.77 439.32 114.84 439.08C116.76 438.97 116.77 435.97 114.84 436.08C111.99 436.25 109.04 436.67 106.19 436.59C103.6 436.51 103.88 436.8 103.45 434.3C103.21 432.93 103.3 431.43 103.23 430.04C103.16 428.71 102.81 427.11 103.01 425.78C103.34 423.54 102.96 424.04 105.16 423.92C108.21 423.74 111.27 423.66 114.33 423.53C115.69 423.47 117.16 423.21 118.5 423.35C120.39 423.55 119.85 423.72 120.37 425.29C121.14 427.64 121.04 430.72 121.35 433.19C121.62 435.39 122.35 435.94 120.33 436.71C119.29 437.11 117.44 436.71 116.35 436.71C113.43 436.71 110.51 436.71 107.59 436.71C105.64 436.71 105.64 439.71 107.57 439.71Z" fill="#474747"/>
<path d="M103.36 426.45C108.83 426.4 114.3 426.35 119.76 426.3C121.69 426.28 121.69 423.28 119.76 423.3C114.29 423.35 108.82 423.4 103.36 423.45C101.43 423.46 101.43 426.46 103.36 426.45Z" fill="#474747"/>
<path d="M112.55 433.3C110.01 433.34 107.46 433.36 104.92 433.36C102.99 433.36 102.99 436.36 104.92 436.36C107.46 436.36 110.01 436.34 112.55 436.3C114.48 436.27 114.49 433.27 112.55 433.3Z" fill="#60605F"/>
<path d="M92.42 436.38C94.53 436.45 96.63 436.45 98.74 436.38C100.67 436.31 100.67 433.31 98.74 433.38C96.63 433.45 94.53 433.45 92.42 433.38C90.48 433.31 90.49 436.31 92.42 436.38Z" fill="#60605F"/>
<path d="M353.65 0.479993V12.06L11.62 559.76L-1.16998 559.86L-0.929983 548.98L341.64 0.429993L353.65 0.479993Z" fill="#22303C"/>
<path d="M-0.929983 548.98L-1.16998 559.86L11.62 559.76L353.65 12.06V0.479993L341.64 0.429993L-0.929983 548.98Z" stroke="#22303C" stroke-miterlimit="10"/>
</g>
<defs>
<clipPath id="clip0">
<rect width="354" height="558" fill="white"/>
</clipPath>
</defs>
</svg>
